<svg width="757" height="210" viewBox="0 0 757 210" fill="none" xmlns="http://www.w3.org/2000/svg">
<path d="M110.386 161.239C108.148 161.296 105.946 160.674 104.068 159.457C102.315 158.299 101.014 156.574 100.384 154.571L104.22 153.157C104.752 154.387 105.622 155.441 106.729 156.196C107.854 156.95 109.184 157.341 110.538 157.315C111.838 157.384 113.121 156.996 114.166 156.219C114.621 155.837 114.98 155.354 115.215 154.809C115.45 154.264 115.554 153.672 115.52 153.079C115.526 152.527 115.398 151.982 115.147 151.49C114.93 151.05 114.646 150.646 114.305 150.293C113.872 149.899 113.381 149.574 112.849 149.33C112.196 149.003 111.657 148.755 111.224 148.584C110.791 148.414 110.155 148.184 109.322 147.898C108.272 147.53 107.48 147.244 106.964 147.032C106.256 146.733 105.568 146.387 104.906 145.996C104.19 145.618 103.54 145.126 102.981 144.541C102.499 143.969 102.11 143.324 101.83 142.63C101.287 141.311 101.173 139.855 101.504 138.467C101.834 137.08 102.593 135.831 103.672 134.898C105.243 133.514 107.376 132.821 110.068 132.821C112.321 132.821 114.173 133.317 115.622 134.309C117.032 135.245 118.068 136.649 118.546 138.274L114.779 139.531C114.395 138.679 113.75 137.971 112.937 137.509C111.962 136.972 110.858 136.711 109.746 136.754C108.652 136.691 107.567 136.994 106.665 137.615C106.296 137.901 106.003 138.272 105.809 138.696C105.615 139.121 105.526 139.585 105.55 140.051C105.554 140.408 105.632 140.76 105.781 141.085C105.929 141.409 106.144 141.699 106.412 141.935C106.934 142.447 107.546 142.859 108.217 143.15C108.843 143.413 109.801 143.763 111.081 144.21C111.864 144.5 112.463 144.712 112.826 144.859C113.19 145.006 113.747 145.241 114.493 145.582C115.081 145.843 115.646 146.151 116.183 146.503C116.665 146.85 117.126 147.223 117.565 147.622C118.037 148.033 118.441 148.516 118.762 149.054C119.068 149.613 119.305 150.207 119.467 150.822C119.668 151.543 119.767 152.289 119.762 153.037C119.762 155.604 118.885 157.612 117.132 159.061C115.379 160.51 113.13 161.236 110.386 161.239ZM135.538 160.778L126.121 133.3H130.514L136.754 152.448C137.098 153.479 137.387 154.527 137.62 155.589C137.848 154.526 138.136 153.478 138.481 152.448L144.642 133.3H148.999L139.618 160.769L135.538 160.778ZM157.315 160.778V133.3H174.354V137.145H161.4V144.679H169.758V148.524H161.4V156.906H175.215V160.751L157.315 160.778ZM185.609 160.778V133.3H189.693V156.846H203.112V160.769L185.609 160.778ZM218.493 137.233V160.769H214.413V137.224H206.644V133.3H226.252V137.224L218.493 137.233ZM234.703 160.778V133.3H251.741V137.145H238.783V144.679H247.141V148.524H238.783V156.906H252.598V160.751L234.703 160.778Z" fill="#4A4A55"/>
<path d="M81.761 128.074C76.9718 121.221 67.5131 119.191 60.6747 123.547L48.6648 131.2C47.0439 132.218 45.653 133.563 44.581 135.149C43.509 136.735 42.7794 138.527 42.4389 140.41C41.8646 143.59 42.3669 146.869 43.8664 149.731C42.8387 151.29 42.1384 153.042 41.808 154.879C41.465 156.805 41.5103 158.779 41.9413 160.686C42.3723 162.594 43.1802 164.396 44.3177 165.987C49.1069 172.839 58.5656 174.87 65.404 170.513L77.4139 162.892C79.033 161.872 80.4224 160.526 81.4942 158.941C82.5659 157.356 83.2966 155.565 83.6399 153.682C84.2121 150.504 83.7081 147.226 82.2077 144.366C83.2349 142.806 83.9366 141.055 84.2708 139.218C84.6127 137.292 84.5669 135.318 84.1359 133.411C83.705 131.504 82.8976 129.702 81.761 128.11" fill="#4A4A55"/>
<path d="M59.5004 166.65C57.6097 167.14 55.6139 167.039 53.7825 166.36C51.9511 165.68 50.3722 164.456 49.2589 162.851C48.5753 161.894 48.0899 160.811 47.8313 159.664C47.5727 158.517 47.5461 157.331 47.753 156.173C47.821 155.797 47.9164 155.426 48.0385 155.064L48.2642 154.373L48.8813 154.833C50.2996 155.869 51.8831 156.657 53.5646 157.163L54.0251 157.297L53.9836 157.757C53.9393 158.389 54.1168 159.016 54.4856 159.53C54.8215 160.013 55.2973 160.382 55.849 160.586C56.4006 160.79 57.0016 160.82 57.5709 160.672C57.8313 160.602 58.0796 160.494 58.3077 160.35L70.2992 152.697C70.5937 152.511 70.8462 152.266 71.0405 151.978C71.2348 151.689 71.3666 151.363 71.4274 151.02C71.4888 150.671 71.4797 150.313 71.4006 149.968C71.3215 149.622 71.174 149.296 70.9669 149.008C70.6309 148.525 70.1551 148.157 69.6035 147.953C69.0518 147.748 68.4509 147.718 67.8815 147.866C67.6209 147.935 67.3724 148.044 67.1447 148.188L62.5397 151.112C61.7866 151.59 60.9652 151.95 60.1037 152.181C58.2161 152.669 56.2244 152.566 54.3966 151.888C52.5689 151.209 50.9928 149.987 49.8805 148.386C49.199 147.429 48.7156 146.345 48.4585 145.199C48.2015 144.052 48.1762 142.866 48.3839 141.709C48.5873 140.574 49.0253 139.494 49.6699 138.537C50.3146 137.581 51.1517 136.77 52.1278 136.155L64.1561 128.502C64.9048 128.025 65.7215 127.665 66.5783 127.434C68.4683 126.943 70.4635 127.044 72.2943 127.723C74.125 128.402 75.7031 129.628 76.8152 131.233C77.4996 132.189 77.9858 133.272 78.2452 134.419C78.5046 135.565 78.532 136.752 78.3257 137.91C78.2538 138.288 78.1585 138.662 78.0402 139.029L77.8099 139.72L77.1975 139.259C75.7762 138.216 74.1878 137.422 72.5004 136.911L72.0399 136.777L72.0813 136.317C72.1345 135.682 71.9616 135.049 71.5932 134.53C71.2551 134.055 70.7806 133.695 70.2327 133.497C69.6849 133.298 69.0897 133.272 68.5262 133.42C68.2656 133.489 68.0171 133.598 67.7894 133.742L55.775 141.382C55.4815 141.568 55.2297 141.812 55.0356 142.1C54.8414 142.387 54.709 142.712 54.6467 143.054C54.5865 143.404 54.5962 143.762 54.6753 144.108C54.7543 144.454 54.9011 144.782 55.1072 145.071C55.4416 145.549 55.9136 145.915 56.4606 146.119C57.0075 146.323 57.6035 146.355 58.1696 146.213C58.4296 146.142 58.6778 146.033 58.9064 145.89L63.5114 142.971C64.264 142.488 65.0875 142.126 65.952 141.898C67.8416 141.406 69.8367 141.506 71.6675 142.184C73.4984 142.863 75.0767 144.088 76.189 145.692C76.8729 146.649 77.3588 147.732 77.6182 148.879C77.8776 150.025 77.9052 151.212 77.6994 152.37C77.4961 153.505 77.058 154.585 76.4134 155.541C75.7687 156.498 74.9316 157.309 73.9555 157.923L61.9411 165.577C61.1865 166.056 60.3636 166.418 59.5004 166.65" fill="white"/>
<g clip-path="url(#clip0)">
<path d="M296.7 40.7H285.6V75H281.1V40.7H270V36.6H296.6V40.7H296.7Z" fill="#4A4A55"/>
<path d="M318 47.6L305.4 79.4C303.1 85.1 300 87.9 295.9 87.9C294.8 87.9 293.8 87.8 293 87.6V83.7C293.9 84 294.8 84.2 295.6 84.2C297.8 84.2 299.5 82.9 300.6 80.2L302.8 75L292.1 47.6H297L304.4 68.7C304.5 69 304.7 69.7 305 70.8H305.2C305.3 70.4 305.5 69.7 305.7 68.8L313.5 47.6H318V47.6ZM325.4 71.1H325.3V87.7H320.9V47.7H325.3V52.5H325.4C327.6 48.9 330.7 47 334.9 47C338.4 47 341.2 48.2 343.2 50.7C345.2 53.2 346.2 56.4 346.2 60.6C346.2 65.2 345.1 68.9 342.9 71.6C340.7 74.3 337.6 75.7 333.7 75.7C330.1 75.7 327.4 74.2 325.4 71.1ZM325.3 60V63.8C325.3 66.1 326 68 327.5 69.6C329 71.2 330.8 72 333.1 72C335.8 72 337.8 71 339.4 68.9C341 66.8 341.7 64 341.7 60.4C341.7 57.3 341 55 339.6 53.2C338.2 51.5 336.3 50.6 333.9 50.6C331.3 50.6 329.3 51.5 327.7 53.3C326.1 55.1 325.3 57.3 325.3 60V60ZM373.3 62.4H353.9C354 65.5 354.8 67.8 356.4 69.5C358 71.2 360.1 72 362.9 72C366 72 368.8 71 371.4 68.9V73C369 74.8 365.8 75.6 361.8 75.6C357.9 75.6 354.9 74.4 352.7 71.9C350.5 69.4 349.4 65.9 349.4 61.4C349.4 57.1 350.6 53.7 353 51C355.4 48.3 358.4 47 362 47C365.6 47 368.4 48.2 370.3 50.5C372.3 52.8 373.2 56 373.2 60.2V62.4H373.3V62.4ZM368.8 58.7C368.8 56.2 368.2 54.2 367 52.8C365.8 51.4 364.1 50.7 362 50.7C359.9 50.7 358.2 51.4 356.7 52.9C355.3 54.4 354.4 56.3 354 58.7H368.8V58.7ZM375.7 73.7V70.7C378.5 72.5 381.2 73.3 384.1 73.3C387.1 73.3 389.4 72.7 390.9 71.4C392.5 70.2 393.2 68.4 393.2 66.2C393.2 64.2 392.7 62.7 391.6 61.5C390.6 60.3 388.3 58.7 384.8 56.7C380.9 54.4 378.4 52.5 377.4 51C376.4 49.5 375.8 47.7 375.8 45.7C375.8 43 376.9 40.7 379 38.8C381.1 36.9 383.9 36 387.4 36C389.7 36 392 36.4 394.3 37.2V40C392 39 389.6 38.5 387.1 38.5C384.5 38.5 382.4 39.2 380.9 40.5C379.4 41.8 378.6 43.5 378.6 45.5C378.6 47.5 379.1 49 380.2 50.2C381.2 51.4 383.5 52.9 387 54.9C390.6 56.9 393 58.7 394.2 60.3C395.4 61.9 396 63.7 396 65.8C396 68.7 395 71.1 392.9 73C390.9 74.9 388 75.8 384.2 75.8C382.9 75.8 381.4 75.6 379.6 75.2C378 74.7 376.7 74.2 375.7 73.7V73.7ZM419.2 73.8C417.2 75 414.7 75.7 411.9 75.7C408.2 75.7 405.2 74.4 402.9 71.9C400.6 69.3 399.5 66 399.5 61.8C399.5 57.4 400.8 53.9 403.4 51.1C406 48.3 409.3 46.9 413.3 46.9C415.4 46.9 417.4 47.3 419.4 48.2V51C417.4 49.8 415.3 49.2 412.9 49.2C409.7 49.2 407.1 50.4 405.1 52.7C403.1 55 402.1 58 402.1 61.7C402.1 65.3 403 68.1 404.8 70.3C406.6 72.5 409 73.5 412 73.5C414.7 73.5 417.1 72.8 419.2 71.3V73.8V73.8ZM435.8 50.2C435 49.6 434 49.3 432.9 49.3C430.7 49.3 428.9 50.4 427.5 52.6C426 54.8 425.3 58 425.3 62.1V75H422.9V47.6H425.3V53.7H425.4C426 51.6 427 50 428.4 48.8C429.8 47.6 431.3 47.1 433.1 47.1C434.1 47.1 435 47.3 435.8 47.6V50.2V50.2ZM440 40.7C439.5 40.7 439 40.5 438.6 40.1C438.2 39.7 438 39.2 438 38.6C438 38 438.2 37.5 438.6 37.2C439 36.8 439.5 36.7 440 36.7C440.6 36.7 441 36.9 441.5 37.2C441.9 37.6 442.1 38 442.1 38.6C442.1 39.2 441.9 39.7 441.5 40.1C441 40.5 440.6 40.7 440 40.7ZM438.8 75.1V47.7H441.3V75.1H438.8ZM449.9 70.2H449.8V87.7H447.3V47.7H449.8V53.4H449.9C450.9 51.4 452.3 49.8 454.1 48.7C455.9 47.6 457.9 47.1 460.1 47.1C463.6 47.1 466.3 48.3 468.3 50.7C470.3 53.1 471.2 56.4 471.2 60.5C471.2 65.1 470.1 68.8 467.8 71.6C465.6 74.4 462.6 75.8 458.9 75.8C454.9 75.7 451.9 73.9 449.9 70.2ZM449.8 60V63.5C449.8 66.3 450.7 68.6 452.4 70.6C454.1 72.6 456.4 73.6 459.2 73.6C462 73.6 464.3 72.4 466 70C467.7 67.6 468.6 64.4 468.6 60.5C468.6 57.1 467.8 54.3 466.2 52.3C464.6 50.3 462.4 49.3 459.8 49.3C456.6 49.3 454.1 50.4 452.4 52.5C450.7 54.6 449.8 57.1 449.8 60V60ZM486.5 74.7C485.2 75.3 484 75.6 482.9 75.6C478.8 75.6 476.8 73.2 476.8 68.3V49.9H471.9V47.6H476.8V40.5C477.2 40.4 477.6 40.2 478 40.1C478.4 40 478.8 39.8 479.2 39.7V47.7H486.4V50H479.2V68.1C479.2 70 479.5 71.4 480.1 72.2C480.7 73 481.7 73.5 483.1 73.5C484.1 73.5 485.2 73.2 486.4 72.5V74.7H486.5V74.7Z" fill="#4A4A55"/>
</g>
<path d="M395.447 162.576L382.358 131.912C382.165 131.304 381.382 130.982 380.765 130.982H380.359C379.733 130.982 378.978 131.406 378.729 131.977L365.557 162.622C365.53 162.687 365.511 162.76 365.511 162.843C365.511 163.138 365.76 163.377 366.055 163.377H369.711C369.988 163.377 370.255 163.092 370.347 162.898C370.375 162.834 372.898 156.709 372.898 156.709H388.133L390.685 163.009C390.685 163.009 390.878 163.562 391.477 163.562H394.784C395.18 163.562 395.512 163.239 395.512 162.843C395.502 162.742 395.447 162.576 395.447 162.576V162.576ZM374.473 152.692L380.516 138.185L386.512 152.692H374.473ZM456.664 151.882C456.664 146.07 452.924 142.238 447.471 142.238C444.358 142.238 442.11 143.546 440.802 145.259V131.682H440.793C440.786 131.553 440.73 131.431 440.635 131.342C440.541 131.252 440.416 131.203 440.287 131.203H436.851C436.574 131.203 436.344 131.424 436.344 131.7V162.88C436.344 163.147 436.565 163.368 436.832 163.368H440.369C440.637 163.368 440.858 163.147 440.858 162.88V152.103C440.904 149.266 442.884 146.291 446.624 146.291C449.912 146.291 452.169 148.769 452.169 152.508V162.88C452.169 163.147 452.39 163.368 452.657 163.368H456.194C456.461 163.368 456.682 163.147 456.682 162.88L456.664 151.882ZM464.825 132.594C463.066 132.64 461.675 133.81 461.675 135.615C461.675 137.421 463.075 138.682 464.825 138.682C466.63 138.682 468.021 137.421 468.021 135.615C468.021 133.81 466.621 132.548 464.825 132.594ZM511.553 152.692C511.553 152.582 511.553 152.462 511.543 152.361V152.324C511.543 152.241 511.543 152.158 511.534 152.075C511.534 152.029 511.525 151.992 511.525 151.946C511.497 151.606 511.47 151.292 511.451 151.136C510.779 145.839 506.993 142.256 501.605 142.256C495.341 142.256 490.966 146.945 490.966 153.024C490.966 159.196 495.7 163.792 502.139 163.792C506.192 163.792 508.614 162.475 510.097 161.314C510.097 161.314 510.429 161.084 510.226 160.706L508.734 158.21C508.605 158.007 508.227 157.989 507.979 158.192C506.837 159.039 505.243 160.006 502.627 160.006C498.749 160.006 495.958 157.62 495.369 154.332H511.184C511.424 154.332 511.525 154.129 511.525 153.89C511.525 153.89 511.543 153.374 511.543 152.868V152.84C511.553 152.785 511.553 152.739 511.553 152.692V152.692ZM495.424 151.117C496.096 147.875 498.491 145.895 501.734 145.895C504.709 145.895 507.048 147.967 507.279 151.117H495.424ZM411.373 142.312C411.373 142.312 410.553 142.247 410.12 142.247C406.427 142.247 403.949 144.274 403.092 146.705L402.936 143.122C402.921 142.993 402.86 142.874 402.763 142.787C402.666 142.7 402.541 142.653 402.411 142.652H399.592C399.455 142.652 399.324 142.707 399.227 142.804C399.131 142.9 399.076 143.031 399.076 143.168V162.871C399.076 163.147 399.307 163.377 399.583 163.377H403.065C403.341 163.377 403.571 163.156 403.58 162.88V152.342C403.626 149.413 405.607 146.53 409.485 146.53C410.093 146.53 411.005 146.687 411.005 146.687C411.281 146.724 411.493 146.558 411.511 146.318L411.797 142.781C411.815 142.533 411.612 142.33 411.373 142.312V142.312ZM429.675 158.422C429.86 158.32 430.071 158.394 430.164 158.569L431.674 161.323C431.766 161.498 431.702 161.692 431.527 161.802L431.508 161.811C430.09 162.687 428.091 163.773 424.582 163.773C417.913 163.773 413.317 159.085 413.317 153.052C413.317 146.926 418.226 142.238 424.582 142.238C428.128 142.238 430.256 143.325 431.656 144.301C431.72 144.347 431.914 144.513 431.757 144.78L430.173 147.507C430.071 147.682 429.86 147.728 429.685 147.626L429.648 147.599C428.552 146.917 427.069 146.337 425.079 146.337C420.796 146.337 417.913 149.174 417.913 153.052C417.913 156.837 420.796 159.674 424.895 159.674C427.096 159.674 428.524 159.085 429.648 158.431L429.675 158.422ZM466.639 142.643H463.148C462.881 142.643 462.66 142.864 462.66 143.131L462.614 162.889C462.614 163.156 462.835 163.377 463.102 163.377H466.63C466.897 163.377 467.118 163.156 467.118 162.889V143.131C467.118 142.864 466.907 142.643 466.639 142.643ZM487.88 158.827C487.825 158.717 487.466 158.707 487.07 158.928C486.287 159.334 485.402 159.767 483.836 159.767C481.267 159.767 479.691 158.643 479.691 155.889V146.383H487.41C487.677 146.383 487.899 146.162 487.899 145.895V143.131C487.899 142.864 487.677 142.643 487.41 142.643H479.691V136.011C479.691 135.744 479.47 135.523 479.203 135.523H475.804C475.537 135.523 475.316 135.744 475.316 136.011V142.643H471.475C471.208 142.643 470.987 142.864 470.987 143.131V145.895C470.987 146.162 471.208 146.383 471.475 146.383H475.224V156.165C475.224 161.075 478.337 163.783 482.934 163.783C486.194 163.783 488.083 162.659 488.976 162.023C489.133 161.848 489.225 161.673 489.133 161.48L487.88 158.827ZM530.785 158.495C530.969 158.394 531.181 158.468 531.273 158.643L532.784 161.397C532.876 161.572 532.812 161.765 532.637 161.876L532.618 161.885C531.2 162.76 529.201 163.847 525.692 163.847C519.023 163.847 514.426 159.159 514.426 153.125C514.426 147 519.336 142.312 525.692 142.312C529.238 142.312 531.366 143.399 532.766 144.375C532.83 144.421 533.024 144.587 532.867 144.854L531.283 147.58C531.181 147.755 530.969 147.801 530.794 147.7L530.758 147.672C529.662 146.991 528.179 146.411 526.189 146.411C521.906 146.411 519.023 149.248 519.023 153.125C519.023 156.911 521.906 159.748 526.005 159.748C528.206 159.748 529.634 159.159 530.758 158.505L530.785 158.495ZM553.168 158.928C553.113 158.818 552.754 158.809 552.358 159.03C551.575 159.435 550.69 159.868 549.124 159.868C546.555 159.868 544.98 158.744 544.98 155.99V146.484H552.698C552.966 146.484 553.187 146.263 553.187 145.996V143.233C553.187 142.966 552.966 142.745 552.698 142.745H544.98V136.113C544.98 135.845 544.758 135.624 544.491 135.624H541.092C540.825 135.624 540.604 135.845 540.604 136.113V142.745H536.763C536.496 142.745 536.275 142.966 536.275 143.233V145.996C536.275 146.263 536.496 146.484 536.763 146.484H540.512V156.266C540.512 161.176 543.626 163.884 548.222 163.884C551.483 163.884 553.371 162.76 554.264 162.125C554.421 161.95 554.513 161.775 554.421 161.581L553.168 158.928ZM336.515 125.326C324.513 125.326 314.749 135.09 314.749 147.092C314.749 159.094 324.513 168.858 336.515 168.858C348.517 168.858 358.28 159.094 358.28 147.092C358.28 135.09 348.507 125.326 336.515 125.326ZM351.455 157.224C348.065 162.208 342.511 165.164 336.505 165.164C330.527 165.164 324.973 162.217 321.584 157.27L336.505 142.735L351.455 157.224ZM354.587 147.092C354.587 149.413 354.145 151.688 353.26 153.853L338.366 139.41C337.344 138.388 335.676 138.378 334.663 139.392L319.778 153.899C318.885 151.716 318.433 149.432 318.433 147.092C318.433 137.126 326.548 129.011 336.515 129.011C346.481 129.011 354.587 137.117 354.587 147.092Z" fill="#4A4A55"/>
<g clip-path="url(#clip1)">
<path d="M628.591 146.769C628.591 148.059 628.73 149.105 628.974 149.872C629.253 150.639 629.602 151.476 630.09 152.383C630.264 152.662 630.334 152.941 630.334 153.185C630.334 153.534 630.125 153.882 629.672 154.231L627.475 155.695C627.161 155.905 626.847 156.009 626.568 156.009C626.22 156.009 625.871 155.835 625.522 155.521C625.034 154.998 624.616 154.44 624.267 153.882C623.918 153.289 623.57 152.627 623.186 151.825C620.466 155.033 617.049 156.637 612.935 156.637C610.006 156.637 607.67 155.8 605.961 154.126C604.253 152.453 603.381 150.221 603.381 147.432C603.381 144.468 604.427 142.062 606.554 140.249C608.681 138.435 611.505 137.529 615.097 137.529C616.282 137.529 617.503 137.634 618.793 137.808C620.083 137.982 621.408 138.261 622.803 138.575V136.03C622.803 133.38 622.245 131.532 621.164 130.451C620.048 129.37 618.165 128.847 615.48 128.847C614.26 128.847 613.005 128.986 611.714 129.3C610.424 129.614 609.169 129.997 607.949 130.485C607.391 130.73 606.972 130.869 606.728 130.939C606.484 131.009 606.31 131.043 606.17 131.043C605.682 131.043 605.438 130.695 605.438 129.962V128.254C605.438 127.696 605.508 127.278 605.682 127.034C605.857 126.789 606.17 126.545 606.659 126.301C607.879 125.674 609.343 125.151 611.052 124.732C612.76 124.279 614.574 124.07 616.491 124.07C620.641 124.07 623.674 125.011 625.627 126.894C627.545 128.777 628.521 131.636 628.521 135.472V146.769H628.591ZM614.434 152.069C615.585 152.069 616.77 151.86 618.026 151.441C619.281 151.023 620.397 150.256 621.338 149.21C621.896 148.547 622.314 147.815 622.524 146.978C622.733 146.141 622.872 145.13 622.872 143.945V142.48C621.861 142.236 620.78 142.027 619.664 141.887C618.549 141.748 617.468 141.678 616.387 141.678C614.051 141.678 612.342 142.132 611.191 143.073C610.041 144.014 609.483 145.339 609.483 147.083C609.483 148.722 609.901 149.942 610.773 150.779C611.61 151.651 612.83 152.069 614.434 152.069ZM642.434 155.835C641.806 155.835 641.387 155.73 641.109 155.486C640.83 155.277 640.585 154.789 640.376 154.126L632.182 127.173C631.973 126.476 631.868 126.022 631.868 125.778C631.868 125.22 632.147 124.907 632.705 124.907H636.122C636.785 124.907 637.238 125.011 637.482 125.255C637.761 125.464 637.97 125.953 638.18 126.615L644.037 149.698L649.477 126.615C649.651 125.918 649.86 125.464 650.139 125.255C650.418 125.046 650.907 124.907 651.534 124.907H654.324C654.986 124.907 655.439 125.011 655.718 125.255C655.997 125.464 656.241 125.953 656.381 126.615L661.89 149.977L667.922 126.615C668.132 125.918 668.376 125.464 668.62 125.255C668.899 125.046 669.352 124.907 669.98 124.907H673.222C673.78 124.907 674.094 125.185 674.094 125.778C674.094 125.953 674.059 126.127 674.024 126.336C673.989 126.545 673.92 126.824 673.78 127.208L665.377 154.161C665.168 154.859 664.924 155.312 664.645 155.521C664.366 155.73 663.912 155.87 663.32 155.87H660.321C659.659 155.87 659.205 155.765 658.926 155.521C658.647 155.277 658.403 154.824 658.264 154.126L652.859 131.636L647.489 154.091C647.315 154.789 647.106 155.242 646.827 155.486C646.548 155.73 646.06 155.835 645.432 155.835H642.434ZM687.239 156.776C685.426 156.776 683.613 156.567 681.87 156.149C680.126 155.73 678.766 155.277 677.86 154.754C677.302 154.44 676.918 154.091 676.779 153.778C676.639 153.464 676.57 153.115 676.57 152.801V151.023C676.57 150.291 676.849 149.942 677.372 149.942C677.581 149.942 677.79 149.977 677.999 150.047C678.209 150.116 678.522 150.256 678.871 150.395C680.057 150.918 681.347 151.337 682.707 151.616C684.101 151.895 685.461 152.034 686.856 152.034C689.053 152.034 690.761 151.651 691.947 150.884C693.132 150.116 693.76 149.001 693.76 147.571C693.76 146.595 693.446 145.793 692.818 145.13C692.191 144.468 691.005 143.875 689.297 143.317L684.241 141.748C681.695 140.946 679.812 139.76 678.662 138.191C677.511 136.657 676.918 134.949 676.918 133.135C676.918 131.671 677.232 130.381 677.86 129.265C678.487 128.149 679.324 127.173 680.37 126.406C681.416 125.604 682.602 125.011 683.997 124.593C685.391 124.174 686.856 124 688.39 124C689.157 124 689.959 124.035 690.726 124.139C691.528 124.244 692.26 124.384 692.993 124.523C693.69 124.697 694.353 124.872 694.98 125.081C695.608 125.29 696.096 125.499 696.445 125.709C696.933 125.987 697.282 126.266 697.491 126.58C697.7 126.859 697.805 127.243 697.805 127.731V129.37C697.805 130.102 697.526 130.485 697.003 130.485C696.724 130.485 696.27 130.346 695.678 130.067C693.69 129.16 691.459 128.707 688.983 128.707C686.995 128.707 685.426 129.021 684.345 129.684C683.264 130.346 682.707 131.357 682.707 132.787C682.707 133.763 683.055 134.6 683.753 135.262C684.45 135.925 685.74 136.587 687.588 137.18L692.539 138.749C695.05 139.551 696.863 140.667 697.944 142.097C699.025 143.526 699.548 145.165 699.548 146.978C699.548 148.478 699.234 149.837 698.641 151.023C698.014 152.209 697.177 153.255 696.096 154.091C695.015 154.963 693.725 155.591 692.226 156.044C690.657 156.532 689.018 156.776 687.239 156.776Z" fill="#4A4A55"/>
<path fill-rule="evenodd" clip-rule="evenodd" d="M693.83 173.722C682.358 182.195 665.691 186.693 651.36 186.693C631.276 186.693 613.179 179.266 599.511 166.923C598.43 165.947 599.406 164.622 600.696 165.389C615.48 173.966 633.716 179.162 652.58 179.162C665.307 179.162 679.289 176.512 692.156 171.072C694.074 170.201 695.712 172.328 693.83 173.722Z" fill="#4A4A55"/>
<path fill-rule="evenodd" clip-rule="evenodd" d="M698.607 168.283C697.142 166.4 688.913 167.376 685.182 167.83C684.066 167.969 683.892 166.993 684.903 166.261C691.459 161.658 702.233 162.983 703.488 164.517C704.743 166.086 703.139 176.861 697.003 182.021C696.061 182.823 695.155 182.405 695.573 181.359C696.968 177.907 700.071 170.131 698.607 168.283Z" fill="#4A4A55"/>
</g>
<defs>
<clipPath id="clip0">
<rect width="216.5" height="51.9" fill="white" transform="translate(270 36)"/>
</clipPath>
<clipPath id="clip1">
<rect width="106" height="63.4605" fill="white" transform="translate(598 124)"/>
</clipPath>
</defs>
</svg>
