<svg width="757" height="210" viewBox="0 0 757 210" fill="none" xmlns="http://www.w3.org/2000/svg">
<path d="M379.386 72.2389C377.148 72.2956 374.946 71.6743 373.068 70.4568C371.315 69.2994 370.014 67.5742 369.384 65.5708L373.22 64.1571C373.752 65.387 374.622 66.4408 375.729 67.1964C376.854 67.9503 378.184 68.3409 379.538 68.3154C380.838 68.3838 382.121 67.9962 383.166 67.2194C383.621 66.8373 383.98 66.3544 384.215 65.8092C384.45 65.264 384.554 64.6715 384.52 64.0788C384.526 63.5269 384.398 62.9818 384.147 62.4901C383.93 62.0499 383.646 61.646 383.305 61.2928C382.872 60.8991 382.381 60.5745 381.849 60.3303C381.196 60.0034 380.657 59.7547 380.224 59.5843C379.791 59.4139 379.155 59.1837 378.322 58.8982C377.272 58.5298 376.48 58.2443 375.964 58.0324C375.256 57.7328 374.568 57.3867 373.906 56.9963C373.19 56.6178 372.54 56.1264 371.981 55.5411C371.499 54.9687 371.11 54.3237 370.83 53.6301C370.287 52.3109 370.173 50.8546 370.504 49.4671C370.834 48.0796 371.593 46.8311 372.672 45.8982C374.243 44.5137 376.376 43.8214 379.068 43.8214C381.321 43.8214 383.173 44.3172 384.622 45.3088C386.032 46.2453 387.068 47.6492 387.546 49.2737L383.779 50.5309C383.395 49.6787 382.75 48.9708 381.937 48.5093C380.962 47.9721 379.858 47.711 378.746 47.7541C377.652 47.6905 376.567 47.9935 375.665 48.6152C375.296 48.9013 375.003 49.2722 374.809 49.6964C374.615 50.1206 374.526 50.5854 374.55 51.0512C374.554 51.408 374.632 51.7601 374.781 52.0846C374.929 52.4091 375.144 52.6988 375.412 52.9347C375.934 53.4468 376.546 53.8589 377.217 54.1504C377.843 54.4129 378.801 54.7629 380.081 55.2096C380.864 55.4997 381.463 55.7115 381.826 55.8589C382.19 56.0062 382.747 56.2411 383.493 56.5819C384.081 56.8426 384.646 57.1506 385.183 57.5029C385.665 57.8497 386.126 58.2233 386.565 58.6219C387.037 59.033 387.441 59.5164 387.762 60.054C388.068 60.6127 388.305 61.2065 388.467 61.8224C388.668 62.5433 388.767 63.2889 388.762 64.0374C388.762 66.6039 387.885 68.6117 386.132 70.0607C384.379 71.5098 382.13 72.2358 379.386 72.2389ZM404.538 71.7784L395.121 44.3003H399.514L405.754 63.4479C406.098 64.4786 406.387 65.527 406.62 66.5885C406.848 65.5265 407.136 64.478 407.481 63.4479L413.642 44.3003H417.999L408.618 71.7692L404.538 71.7784ZM426.315 71.7784V44.3003H443.354V48.1455H430.4V55.6793H438.758V59.5245H430.4V67.9056H444.215V71.7508L426.315 71.7784ZM454.609 71.7784V44.3003H458.693V67.8457H472.112V71.7692L454.609 71.7784ZM487.493 48.233V71.7692H483.413V48.2238H475.644V44.3003H495.252V48.2238L487.493 48.233ZM503.703 71.7784V44.3003H520.741V48.1455H507.783V55.6793H516.141V59.5245H507.783V67.9056H521.598V71.7508L503.703 71.7784Z" fill="#4A4A55"/>
<path d="M350.761 39.0736C345.972 32.2213 336.513 30.1905 329.675 34.5469L317.665 42.2004C316.044 43.2185 314.653 44.5633 313.581 46.1491C312.509 47.7349 311.779 49.5268 311.439 51.4104C310.865 54.5896 311.367 57.8694 312.866 60.731C311.839 62.29 311.138 64.0415 310.808 65.8794C310.465 67.8046 310.51 69.779 310.941 71.6864C311.372 73.5939 312.18 75.3959 313.318 76.9866C318.107 83.8389 327.566 85.8697 334.404 81.5134L346.414 73.8921C348.033 72.8719 349.422 71.5264 350.494 69.941C351.566 68.3555 352.297 66.5647 352.64 64.6821C353.212 61.5039 352.708 58.2257 351.208 55.3661C352.235 53.8063 352.937 52.0552 353.271 50.2177C353.613 48.2925 353.567 46.3183 353.136 44.411C352.705 42.5037 351.898 40.7016 350.761 39.1104" fill="#4A4A55"/>
<path d="M328.5 77.6498C326.61 78.1404 324.614 78.0392 322.783 77.3598C320.951 76.6805 319.372 75.4556 318.259 73.8506C317.575 72.8943 317.09 71.8109 316.831 70.6642C316.573 69.5174 316.546 68.3305 316.753 67.1734C316.821 66.797 316.916 66.426 317.039 66.0636L317.264 65.3728L317.881 65.8333C319.3 66.8688 320.883 67.6567 322.565 68.1635L323.025 68.297L322.984 68.7575C322.939 69.3889 323.117 70.016 323.486 70.5304C323.822 71.0133 324.297 71.3816 324.849 71.5857C325.401 71.7899 326.002 71.8202 326.571 71.6725C326.831 71.6025 327.08 71.4938 327.308 71.3501L339.299 63.6966C339.594 63.5113 339.846 63.2664 340.04 62.9777C340.235 62.6891 340.367 62.363 340.427 62.0204C340.489 61.6712 340.48 61.3132 340.401 60.9676C340.321 60.622 340.174 60.2957 339.967 60.008C339.631 59.5251 339.155 59.1568 338.603 58.9527C338.052 58.7485 337.451 58.7182 336.882 58.8659C336.621 58.935 336.372 59.0438 336.145 59.1883L331.54 62.1125C330.787 62.59 329.965 62.9503 329.104 63.1808C327.216 63.6685 325.224 63.5663 323.397 62.8879C321.569 62.2095 319.993 60.9875 318.881 59.3863C318.199 58.4291 317.716 57.3453 317.459 56.1987C317.202 55.052 317.176 53.8656 317.384 52.709C317.587 51.5738 318.025 50.4935 318.67 49.5372C319.315 48.5809 320.152 47.7697 321.128 47.1554L333.156 39.5019C333.905 39.0253 334.722 38.665 335.578 38.4335C337.468 37.9425 339.464 38.0436 341.294 38.723C343.125 39.4025 344.703 40.6275 345.815 42.2326C346.5 43.1886 346.986 44.2719 347.245 45.4186C347.505 46.5654 347.532 47.7524 347.326 48.9099C347.254 49.2885 347.158 49.6622 347.04 50.0289L346.81 50.7197L346.197 50.2592C344.776 49.2158 343.188 48.4216 341.5 47.9106L341.04 47.7771L341.081 47.3166C341.134 46.6821 340.962 46.0492 340.593 45.5298C340.255 45.0553 339.781 44.695 339.233 44.4967C338.685 44.2985 338.09 44.2717 337.526 44.42C337.266 44.4891 337.017 44.5978 336.789 44.7424L324.775 52.3821C324.482 52.5675 324.23 52.8119 324.036 53.0996C323.841 53.3873 323.709 53.7122 323.647 54.0537C323.587 54.4037 323.596 54.7621 323.675 55.1083C323.754 55.4544 323.901 55.7815 324.107 56.0707C324.442 56.5491 324.914 56.9146 325.461 57.1186C326.008 57.3225 326.604 57.3554 327.17 57.2127C327.43 57.1418 327.678 57.0332 327.906 56.8904L332.511 53.9708C333.264 53.488 334.087 53.126 334.952 52.8978C336.842 52.4057 338.837 52.5058 340.668 53.1844C342.498 53.8631 344.077 55.0876 345.189 56.6924C345.873 57.6486 346.359 58.7319 346.618 59.8785C346.878 61.0252 346.905 62.2121 346.699 63.3696C346.496 64.5049 346.058 65.5851 345.413 66.5414C344.769 67.4977 343.932 68.309 342.956 68.9233L330.941 76.5768C330.186 77.0559 329.364 77.4177 328.5 77.6498Z" fill="white"/>
<g clip-path="url(#clip0)">
<path d="M63.7 42.7H52.6V77H48.1V42.7H37V38.6H63.6V42.7H63.7Z" fill="#4A4A55"/>
<path d="M85 49.6L72.4 81.4C70.1 87.1 67 89.9 62.9 89.9C61.8 89.9 60.8 89.8 60 89.6V85.7C60.9 86 61.8 86.2 62.6 86.2C64.8 86.2 66.5 84.9 67.6 82.2L69.8 77L59.1 49.6H64L71.4 70.7C71.5 71 71.7 71.7 72 72.8H72.2C72.3 72.4 72.5 71.7 72.7 70.8L80.5 49.6H85ZM92.4 73.1H92.3V89.7H87.9V49.7H92.3V54.5H92.4C94.6 50.9 97.7 49 101.9 49C105.4 49 108.2 50.2 110.2 52.7C112.2 55.2 113.2 58.4 113.2 62.6C113.2 67.2 112.1 70.9 109.9 73.6C107.7 76.3 104.6 77.7 100.7 77.7C97.1 77.7 94.4 76.2 92.4 73.1ZM92.3 62V65.8C92.3 68.1 93 70 94.5 71.6C96 73.2 97.8 74 100.1 74C102.8 74 104.8 73 106.4 70.9C108 68.8 108.7 66 108.7 62.4C108.7 59.3 108 57 106.6 55.2C105.2 53.5 103.3 52.6 100.9 52.6C98.3 52.6 96.3 53.5 94.7 55.3C93.1 57.1 92.3 59.3 92.3 62ZM140.3 64.4H120.9C121 67.5 121.8 69.8 123.4 71.5C125 73.2 127.1 74 129.9 74C133 74 135.8 73 138.4 70.9V75C136 76.8 132.8 77.6 128.8 77.6C124.9 77.6 121.9 76.4 119.7 73.9C117.5 71.4 116.4 67.9 116.4 63.4C116.4 59.1 117.6 55.7 120 53C122.4 50.3 125.4 49 129 49C132.6 49 135.4 50.2 137.3 52.5C139.3 54.8 140.2 58 140.2 62.2V64.4H140.3ZM135.8 60.7C135.8 58.2 135.2 56.2 134 54.8C132.8 53.4 131.1 52.7 129 52.7C126.9 52.7 125.2 53.4 123.7 54.9C122.3 56.4 121.4 58.3 121 60.7H135.8ZM142.7 75.7V72.7C145.5 74.5 148.2 75.3 151.1 75.3C154.1 75.3 156.4 74.7 157.9 73.4C159.5 72.2 160.2 70.4 160.2 68.2C160.2 66.2 159.7 64.7 158.6 63.5C157.6 62.3 155.3 60.7 151.8 58.7C147.9 56.4 145.4 54.5 144.4 53C143.4 51.5 142.8 49.7 142.8 47.7C142.8 45 143.9 42.7 146 40.8C148.1 38.9 150.9 38 154.4 38C156.7 38 159 38.4 161.3 39.2V42C159 41 156.6 40.5 154.1 40.5C151.5 40.5 149.4 41.2 147.9 42.5C146.4 43.8 145.6 45.5 145.6 47.5C145.6 49.5 146.1 51 147.2 52.2C148.2 53.4 150.5 54.9 154 56.9C157.6 58.9 160 60.7 161.2 62.3C162.4 63.9 163 65.7 163 67.8C163 70.7 162 73.1 159.9 75C157.9 76.9 155 77.8 151.2 77.8C149.9 77.8 148.4 77.6 146.6 77.2C145 76.7 143.7 76.2 142.7 75.7ZM186.2 75.8C184.2 77 181.7 77.7 178.9 77.7C175.2 77.7 172.2 76.4 169.9 73.9C167.6 71.3 166.5 68 166.5 63.8C166.5 59.4 167.8 55.9 170.4 53.1C173 50.3 176.3 48.9 180.3 48.9C182.4 48.9 184.4 49.3 186.4 50.2V53C184.4 51.8 182.3 51.2 179.9 51.2C176.7 51.2 174.1 52.4 172.1 54.7C170.1 57 169.1 60 169.1 63.7C169.1 67.3 170 70.1 171.8 72.3C173.6 74.5 176 75.5 179 75.5C181.7 75.5 184.1 74.8 186.2 73.3V75.8ZM202.8 52.2C202 51.6 201 51.3 199.9 51.3C197.7 51.3 195.9 52.4 194.5 54.6C193 56.8 192.3 60 192.3 64.1V77H189.9V49.6H192.3V55.7H192.4C193 53.6 194 52 195.4 50.8C196.8 49.6 198.3 49.1 200.1 49.1C201.1 49.1 202 49.3 202.8 49.6V52.2ZM207 42.7C206.5 42.7 206 42.5 205.6 42.1C205.2 41.7 205 41.2 205 40.6C205 40 205.2 39.5 205.6 39.2C206 38.8 206.5 38.7 207 38.7C207.6 38.7 208 38.9 208.5 39.2C208.9 39.6 209.1 40 209.1 40.6C209.1 41.2 208.9 41.7 208.5 42.1C208 42.5 207.6 42.7 207 42.7ZM205.8 77.1V49.7H208.3V77.1H205.8ZM216.9 72.2H216.8V89.7H214.3V49.7H216.8V55.4H216.9C217.9 53.4 219.3 51.8 221.1 50.7C222.9 49.6 224.9 49.1 227.1 49.1C230.6 49.1 233.3 50.3 235.3 52.7C237.3 55.1 238.2 58.4 238.2 62.5C238.2 67.1 237.1 70.8 234.8 73.6C232.6 76.4 229.6 77.8 225.9 77.8C221.9 77.7 218.9 75.9 216.9 72.2ZM216.8 62V65.5C216.8 68.3 217.7 70.6 219.4 72.6C221.1 74.6 223.4 75.6 226.2 75.6C229 75.6 231.3 74.4 233 72C234.7 69.6 235.6 66.4 235.6 62.5C235.6 59.1 234.8 56.3 233.2 54.3C231.6 52.3 229.4 51.3 226.8 51.3C223.6 51.3 221.1 52.4 219.4 54.5C217.7 56.6 216.8 59.1 216.8 62ZM253.5 76.7C252.2 77.3 251 77.6 249.9 77.6C245.8 77.6 243.8 75.2 243.8 70.3V51.9H238.9V49.6H243.8V42.5C244.2 42.4 244.6 42.2 245 42.1C245.4 42 245.8 41.8 246.2 41.7V49.7H253.4V52H246.2V70.1C246.2 72 246.5 73.4 247.1 74.2C247.7 75 248.7 75.5 250.1 75.5C251.1 75.5 252.2 75.2 253.4 74.5V76.7H253.5Z" fill="#4A4A55"/>
</g>
<g clip-path="url(#clip1)">
<path d="M598.591 66.7691C598.591 68.0592 598.73 69.1052 598.974 69.8723C599.253 70.6394 599.602 71.4763 600.09 72.3829C600.264 72.6618 600.334 72.9408 600.334 73.1848C600.334 73.5335 600.125 73.8822 599.672 74.2309L597.475 75.6954C597.161 75.9046 596.847 76.0092 596.568 76.0092C596.22 76.0092 595.871 75.8348 595.522 75.521C595.034 74.998 594.616 74.4401 594.267 73.8822C593.918 73.2894 593.57 72.6269 593.186 71.825C590.466 75.0329 587.049 76.6368 582.935 76.6368C580.006 76.6368 577.67 75.8 575.961 74.1263C574.253 72.4526 573.381 70.221 573.381 67.4316C573.381 64.4677 574.427 62.0618 576.554 60.2487C578.681 58.4355 581.505 57.5289 585.097 57.5289C586.282 57.5289 587.503 57.6335 588.793 57.8079C590.083 57.9822 591.408 58.2612 592.803 58.575V56.0296C592.803 53.3796 592.245 51.5315 591.164 50.4506C590.048 49.3697 588.165 48.8467 585.48 48.8467C584.26 48.8467 583.005 48.9862 581.714 49.3C580.424 49.6138 579.169 49.9973 577.949 50.4855C577.391 50.7296 576.972 50.869 576.728 50.9388C576.484 51.0085 576.31 51.0434 576.17 51.0434C575.682 51.0434 575.438 50.6947 575.438 49.9625V48.2539C575.438 47.696 575.508 47.2776 575.682 47.0335C575.857 46.7894 576.17 46.5454 576.659 46.3013C577.879 45.6737 579.343 45.1506 581.052 44.7322C582.76 44.2789 584.574 44.0697 586.491 44.0697C590.641 44.0697 593.674 45.0112 595.627 46.894C597.545 48.7769 598.521 51.6362 598.521 55.4717V66.7691H598.591ZM584.434 72.069C585.585 72.069 586.77 71.8598 588.026 71.4414C589.281 71.023 590.397 70.2559 591.338 69.2098C591.896 68.5473 592.314 67.8151 592.524 66.9783C592.733 66.1414 592.872 65.1302 592.872 63.9447V62.4802C591.861 62.2362 590.78 62.0269 589.664 61.8875C588.549 61.748 587.468 61.6783 586.387 61.6783C584.051 61.6783 582.342 62.1315 581.191 63.073C580.041 64.0144 579.483 65.3394 579.483 67.0829C579.483 68.7217 579.901 69.9421 580.773 70.7789C581.61 71.6506 582.83 72.069 584.434 72.069ZM612.434 75.8348C611.806 75.8348 611.387 75.7302 611.109 75.4862C610.83 75.2769 610.585 74.7888 610.376 74.1263L602.182 47.173C601.973 46.4756 601.868 46.0223 601.868 45.7783C601.868 45.2204 602.147 44.9065 602.705 44.9065H606.122C606.785 44.9065 607.238 45.0112 607.482 45.2552C607.761 45.4644 607.97 45.9526 608.18 46.6151L614.037 69.698L619.477 46.6151C619.651 45.9177 619.86 45.4644 620.139 45.2552C620.418 45.046 620.907 44.9065 621.534 44.9065H624.324C624.986 44.9065 625.439 45.0112 625.718 45.2552C625.997 45.4644 626.241 45.9526 626.381 46.6151L631.89 69.9769L637.922 46.6151C638.132 45.9177 638.376 45.4644 638.62 45.2552C638.899 45.046 639.352 44.9065 639.98 44.9065H643.222C643.78 44.9065 644.094 45.1855 644.094 45.7783C644.094 45.9526 644.059 46.1269 644.024 46.3362C643.989 46.5454 643.92 46.8243 643.78 47.2079L635.377 74.1612C635.168 74.8585 634.924 75.3118 634.645 75.521C634.366 75.7302 633.912 75.8697 633.32 75.8697H630.321C629.659 75.8697 629.205 75.7651 628.926 75.521C628.647 75.2769 628.403 74.8237 628.264 74.1263L622.859 51.6362L617.489 74.0914C617.315 74.7888 617.106 75.2421 616.827 75.4862C616.548 75.7302 616.06 75.8348 615.432 75.8348H612.434ZM657.239 76.7763C655.426 76.7763 653.613 76.5671 651.87 76.1487C650.126 75.7302 648.766 75.2769 647.86 74.7539C647.302 74.4401 646.918 74.0914 646.779 73.7776C646.639 73.4638 646.57 73.1151 646.57 72.8013V71.023C646.57 70.2908 646.849 69.9421 647.372 69.9421C647.581 69.9421 647.79 69.9769 647.999 70.0467C648.209 70.1164 648.522 70.2559 648.871 70.3954C650.057 70.9184 651.347 71.3368 652.707 71.6158C654.101 71.8947 655.461 72.0342 656.856 72.0342C659.053 72.0342 660.761 71.6506 661.947 70.8835C663.132 70.1164 663.76 69.0006 663.76 67.571C663.76 66.5947 663.446 65.7927 662.818 65.1302C662.191 64.4677 661.005 63.875 659.297 63.3171L654.241 61.748C651.695 60.946 649.812 59.7605 648.662 58.1914C647.511 56.6572 646.918 54.9487 646.918 53.1355C646.918 51.671 647.232 50.3809 647.86 49.2651C648.487 48.1493 649.324 47.173 650.37 46.4059C651.416 45.6039 652.602 45.0112 653.997 44.5927C655.391 44.1743 656.856 44 658.39 44C659.157 44 659.959 44.0348 660.726 44.1394C661.528 44.244 662.26 44.3835 662.993 44.523C663.69 44.6973 664.353 44.8717 664.98 45.0809C665.608 45.2901 666.096 45.4993 666.445 45.7085C666.933 45.9875 667.282 46.2664 667.491 46.5802C667.7 46.8592 667.805 47.2427 667.805 47.7309V49.3697C667.805 50.1019 667.526 50.4855 667.003 50.4855C666.724 50.4855 666.27 50.346 665.678 50.0671C663.69 49.1605 661.459 48.7072 658.983 48.7072C656.995 48.7072 655.426 49.021 654.345 49.6835C653.264 50.346 652.707 51.3572 652.707 52.7868C652.707 53.7631 653.055 54.6 653.753 55.2625C654.45 55.925 655.74 56.5875 657.588 57.1802L662.539 58.7493C665.05 59.5513 666.863 60.6671 667.944 62.0967C669.025 63.5263 669.548 65.1651 669.548 66.9783C669.548 68.4776 669.234 69.8375 668.641 71.023C668.014 72.2085 667.177 73.2546 666.096 74.0914C665.015 74.9631 663.725 75.5908 662.226 76.044C660.657 76.5322 659.018 76.7763 657.239 76.7763Z" fill="#4A4A55"/>
<path fill-rule="evenodd" clip-rule="evenodd" d="M663.83 93.7224C652.358 102.195 635.691 106.693 621.36 106.693C601.276 106.693 583.179 99.2664 569.511 86.923C568.43 85.9467 569.406 84.6217 570.696 85.3888C585.48 93.9664 603.716 99.1618 622.58 99.1618C635.307 99.1618 649.289 96.5118 662.156 91.0724C664.074 90.2006 665.712 92.3276 663.83 93.7224Z" fill="#4A4A55"/>
<path fill-rule="evenodd" clip-rule="evenodd" d="M668.607 88.2829C667.142 86.4 658.913 87.3763 655.182 87.8296C654.066 87.9691 653.892 86.9927 654.903 86.2605C661.459 81.6579 672.233 82.9829 673.488 84.5171C674.743 86.0862 673.139 96.8605 667.003 102.021C666.061 102.823 665.155 102.405 665.573 101.359C666.968 97.9066 670.071 90.1309 668.607 88.2829Z" fill="#4A4A55"/>
</g>
<path fill-rule="evenodd" clip-rule="evenodd" d="M334.409 137.182C334.163 137.231 333.915 137.773 333.915 138.068C333.866 140.04 333.817 145.264 333.817 148.812C333.817 148.911 333.965 149.108 334.113 149.108C334.854 149.157 336.634 149.206 338.167 149.206C340.293 149.206 341.529 148.911 342.222 148.615C344.001 147.728 344.842 145.806 344.842 143.686C344.842 138.907 341.48 137.083 336.486 137.083C336.14 137.034 335.152 137.034 334.409 137.182V137.182ZM347.166 159.211C347.166 154.332 343.556 151.621 337.03 151.621C336.733 151.621 334.657 151.572 334.162 151.67C334.014 151.72 333.817 151.819 333.817 151.967C333.817 155.465 333.767 161.035 333.915 163.203C334.014 164.139 334.707 165.47 335.547 165.864C336.437 166.357 338.464 166.455 339.848 166.455C343.754 166.455 347.166 164.287 347.166 159.211V159.211ZM324.324 134.471C324.818 134.471 326.301 134.619 330.108 134.619C333.718 134.619 336.585 134.52 340.095 134.52C344.397 134.52 350.33 136.048 350.33 142.455C350.33 145.609 348.105 148.123 345.188 149.355C345.04 149.404 345.04 149.502 345.188 149.551C349.341 150.587 353 153.149 353 157.978C353 162.71 350.033 165.716 345.732 167.589C343.111 168.722 339.848 169.116 336.536 169.116C334.014 169.116 327.241 168.821 323.483 168.92C323.088 168.771 323.829 166.997 324.175 166.702C325.065 166.652 325.757 166.603 326.697 166.307C328.032 165.963 328.18 165.568 328.378 163.548C328.477 161.823 328.477 155.711 328.477 151.375C328.477 145.412 328.526 141.371 328.477 139.399C328.427 137.872 327.884 137.379 326.796 137.083C325.955 136.935 324.571 136.738 323.433 136.59C323.186 136.344 324.027 134.668 324.324 134.471ZM295.795 165.125C296.982 166.061 299.306 166.455 301.383 166.455C304.052 166.455 306.722 165.963 309.293 163.646C311.914 161.281 313.743 157.634 313.743 151.819C313.743 146.249 311.617 141.715 307.266 139.054C304.794 137.526 301.63 136.886 297.971 136.886C296.883 136.886 295.845 136.935 295.203 137.231C295.054 137.329 294.708 137.773 294.708 138.019C294.609 139.005 294.609 146.594 294.609 151.03C294.609 155.613 294.609 162.02 294.708 162.759C294.708 163.499 295.054 164.632 295.796 165.125H295.795ZM284.572 134.471C285.512 134.471 289.12 134.619 290.851 134.619C293.967 134.619 296.191 134.471 302.074 134.471C307.018 134.471 311.172 135.802 314.138 138.315C317.747 141.42 319.627 145.708 319.627 150.931C319.627 158.373 316.215 162.661 312.803 165.125C309.392 167.638 304.942 169.116 298.614 169.116C295.252 169.116 289.467 169.018 284.671 168.968H284.622C284.375 168.525 285.017 166.8 285.412 166.751C286.698 166.603 287.044 166.553 287.687 166.308C288.725 165.913 288.923 165.371 289.072 163.548C289.22 160.147 289.17 156.057 289.17 151.424C289.17 148.123 289.22 141.666 289.12 139.596C288.973 137.872 288.231 137.428 286.748 137.132C286.006 136.984 285.017 136.787 283.633 136.639C283.435 136.294 284.325 134.767 284.572 134.471V134.471Z" fill="#6D6D7E"/>
<path fill-rule="evenodd" clip-rule="evenodd" d="M224.747 167.046C223.511 166.898 222.622 166.702 221.534 166.209C221.386 166.11 221.138 165.618 221.138 165.42C221.039 163.695 221.039 158.767 221.039 155.466C221.039 152.804 220.595 150.488 219.457 148.862C218.122 146.988 216.194 145.905 213.722 145.905C211.547 145.905 208.629 147.383 206.207 149.453C206.157 149.502 205.762 149.847 205.811 149.305C205.811 148.763 205.91 147.679 205.96 146.939C206.009 146.249 205.613 145.905 205.613 145.905C204.031 146.693 199.582 147.728 197.95 147.875C196.764 148.123 196.467 149.256 197.703 149.65H197.753C199.087 150.044 199.977 150.488 200.669 150.932C201.163 151.326 201.114 151.868 201.114 152.312C201.163 156.007 201.163 161.675 201.015 164.78C200.966 166.012 200.62 166.455 199.73 166.652L199.829 166.603C199.137 166.751 198.593 166.898 197.752 166.997C197.455 167.293 197.455 168.87 197.752 169.215C198.296 169.215 201.163 169.067 203.537 169.067C206.8 169.067 208.481 169.215 209.322 169.215C209.668 168.821 209.767 167.342 209.569 166.997C208.629 166.948 207.937 166.85 207.295 166.652C206.405 166.455 206.157 166.012 206.107 164.977C206.009 162.364 206.009 156.845 206.009 153.1C206.009 152.065 206.306 151.572 206.602 151.276C207.739 150.291 209.569 149.601 211.201 149.601C212.783 149.601 213.82 150.094 214.612 150.735C215.699 151.621 216.045 152.903 216.194 153.839C216.441 155.958 216.342 160.147 216.342 163.794C216.342 165.765 216.194 166.258 215.453 166.504C215.106 166.652 214.216 166.85 213.178 166.948C212.832 167.293 212.931 168.821 213.178 169.166C214.612 169.166 216.293 169.018 218.765 169.018C221.83 169.018 223.808 169.166 224.6 169.166C224.846 168.87 224.945 167.441 224.747 167.046V167.046ZM238.443 148.221C235.823 148.221 234.191 150.242 234.191 153.395C234.191 156.599 235.625 160.295 239.679 160.295C240.371 160.295 241.657 159.999 242.25 159.309C243.189 158.423 243.832 156.648 243.832 154.775C243.832 150.685 241.805 148.221 238.443 148.221V148.221ZM238.097 170.003C237.108 170.003 236.416 170.299 235.971 170.546C233.894 171.876 232.955 173.157 232.955 174.686C232.955 176.114 233.499 177.248 234.686 178.234C236.119 179.466 238.097 180.057 240.618 180.057C245.661 180.057 247.886 177.347 247.886 174.686C247.886 172.812 246.947 171.58 245.019 170.891C243.634 170.299 241.113 170.003 238.097 170.003V170.003ZM238.443 182.817C235.427 182.817 233.251 182.176 231.373 180.747C229.543 179.367 228.752 177.297 228.752 175.868C228.752 175.474 228.851 174.39 229.741 173.404C230.285 172.812 231.472 171.679 234.29 169.757C234.389 169.708 234.438 169.659 234.438 169.56C234.438 169.461 234.339 169.363 234.24 169.314C231.917 168.427 231.224 166.997 231.026 166.209V166.11C230.977 165.814 230.878 165.519 231.324 165.223C231.67 164.977 232.164 164.681 232.707 164.337C233.548 163.843 234.438 163.301 234.982 162.857C235.081 162.759 235.081 162.661 235.081 162.562C235.081 162.463 234.982 162.364 234.883 162.316C231.423 161.182 229.692 158.619 229.692 154.775C229.692 152.262 230.829 149.995 232.856 148.566C234.24 147.482 237.701 146.151 239.976 146.151H240.124C242.448 146.2 243.733 146.693 245.562 147.334C246.551 147.679 247.491 147.826 248.777 147.826C250.705 147.826 251.545 147.235 252.237 146.545C252.287 146.644 252.386 146.89 252.435 147.531C252.484 148.172 252.287 149.108 251.792 149.798C251.397 150.34 250.507 150.735 249.617 150.735H249.369C248.479 150.636 248.084 150.537 248.084 150.537L247.886 150.636C247.837 150.735 247.886 150.833 247.936 150.981L247.985 151.08C248.084 151.523 248.282 152.853 248.282 153.199C248.282 157.24 246.65 159.013 244.92 160.344C243.239 161.576 241.311 162.364 239.135 162.562C239.086 162.562 238.889 162.562 238.443 162.611C238.196 162.611 237.85 162.661 237.8 162.661H237.751C237.355 162.759 236.367 163.252 236.367 164.089C236.367 164.829 236.811 165.716 238.937 165.864C239.382 165.913 239.827 165.913 240.322 165.963C243.14 166.159 246.65 166.406 248.282 166.948C250.556 167.786 251.99 169.806 251.99 172.221C251.99 175.869 249.37 179.269 245.019 181.388C242.893 182.324 240.767 182.817 238.443 182.817V182.817ZM266.624 148.468C265.587 148.468 264.647 148.713 263.955 149.206C262.027 150.389 261.038 152.755 261.038 156.204C261.038 162.661 264.301 167.195 268.949 167.195C270.333 167.195 271.421 166.8 272.36 166.012C273.794 164.829 274.536 162.463 274.536 159.161C274.536 152.755 271.322 148.467 266.625 148.467L266.624 148.468ZM267.515 169.56C259.11 169.56 256.094 163.4 256.094 157.634C256.094 153.593 257.725 150.488 260.988 148.27C263.312 146.841 266.081 146.053 268.553 146.053C274.98 146.053 279.48 150.636 279.48 157.24C279.48 161.724 277.7 165.272 274.288 167.441C272.657 168.525 269.839 169.56 267.514 169.56H267.515V169.56ZM179.409 148.467C178.371 148.467 177.432 148.713 176.739 149.206C174.811 150.389 173.822 152.755 173.822 156.204C173.822 162.661 177.085 167.195 181.733 167.195C183.118 167.195 184.205 166.8 185.145 166.012C186.578 164.829 187.32 162.463 187.32 159.161C187.32 152.755 184.156 148.467 179.409 148.467ZM180.299 169.56C171.894 169.56 168.878 163.4 168.878 157.634C168.878 153.593 170.51 150.488 173.773 148.27C176.097 146.841 178.866 146.053 181.338 146.053C187.765 146.053 192.264 150.636 192.264 157.24C192.264 161.724 190.484 165.272 187.073 167.441C185.49 168.525 182.672 169.56 180.299 169.56ZM123.787 169.067C123.688 168.92 123.589 168.476 123.639 167.934C123.639 167.539 123.738 167.293 123.787 167.195C124.826 167.046 125.369 166.898 125.963 166.751C126.952 166.504 127.347 165.963 127.396 164.731C127.545 161.774 127.545 156.155 127.495 152.262V152.163C127.495 151.72 127.495 151.177 126.952 150.783C126.16 150.291 125.221 149.847 123.985 149.501C123.54 149.355 123.243 149.108 123.293 148.813C123.293 148.517 123.59 148.172 124.232 148.073C125.864 147.925 130.115 146.89 131.797 146.151C131.896 146.249 132.044 146.545 132.044 146.94L131.995 147.481C131.945 148.024 131.896 148.665 131.896 149.305C131.896 149.502 132.094 149.65 132.291 149.65C132.39 149.65 132.489 149.601 132.588 149.551C135.752 147.087 138.62 146.2 140.103 146.2C142.526 146.2 144.405 147.334 145.839 149.699C145.937 149.847 146.036 149.897 146.185 149.897C146.283 149.897 146.431 149.847 146.481 149.749C149.398 147.531 152.315 146.2 154.243 146.2C158.841 146.2 161.561 149.601 161.561 155.367C161.561 156.993 161.561 159.112 161.511 161.035C161.511 162.759 161.462 164.336 161.462 165.47C161.462 165.716 161.808 166.504 162.352 166.652C163.044 166.997 163.984 167.145 165.22 167.342H165.269C165.368 167.687 165.17 168.968 164.973 169.215C164.676 169.215 164.231 169.215 163.737 169.166C162.485 169.101 161.232 169.068 159.979 169.067C156.913 169.067 155.331 169.116 153.798 169.215C153.7 168.821 153.65 167.638 153.798 167.342C154.688 167.195 155.133 167.046 155.677 166.899C156.666 166.603 156.913 166.159 156.963 164.878C156.963 163.942 157.16 155.958 156.864 154.036C156.567 152.065 155.084 149.749 151.82 149.749C150.584 149.749 148.657 150.242 146.778 151.67C146.679 151.769 146.58 152.015 146.58 152.163V152.213C146.778 153.247 146.778 154.431 146.778 156.254V159.457C146.778 161.675 146.728 163.745 146.778 165.321C146.778 166.406 147.421 166.652 147.964 166.85C148.261 166.898 148.458 166.948 148.706 166.997C149.151 167.096 149.596 167.195 150.288 167.342C150.387 167.54 150.387 168.18 150.239 168.722C150.189 169.018 150.09 169.165 150.041 169.215C148.36 169.166 146.629 169.116 144.108 169.116C143.366 169.116 142.081 169.166 140.993 169.166C140.103 169.166 139.262 169.215 138.769 169.215C138.719 169.116 138.62 168.772 138.62 168.229C138.62 167.786 138.719 167.441 138.818 167.342C139.065 167.293 139.262 167.244 139.51 167.244C140.103 167.145 140.598 167.046 141.092 166.948C141.933 166.702 142.229 166.258 142.278 165.174C142.427 162.71 142.575 155.663 142.229 153.888C141.636 151.03 140.005 149.601 137.384 149.601C135.851 149.601 133.922 150.34 132.341 151.523C132.093 151.72 131.896 152.212 131.896 152.656V155.564C131.896 159.112 131.896 163.548 131.945 165.47C131.995 166.061 132.192 166.751 133.329 166.997C133.577 167.046 133.972 167.145 134.467 167.195L135.356 167.342C135.456 167.638 135.406 168.821 135.208 169.215C134.714 169.215 134.121 169.166 133.428 169.166C132.39 169.116 131.055 169.067 129.572 169.067C127.841 169.067 126.605 169.116 125.616 169.166C124.924 169.067 124.38 169.067 123.787 169.067V169.067Z" fill="#4A4A55"/>
<path fill-rule="evenodd" clip-rule="evenodd" d="M97.7804 180.895L95.7536 180.205C95.7536 180.205 96.0012 169.905 92.2925 169.166C89.821 166.307 92.689 47.9309 101.588 168.771C101.588 168.771 98.5225 170.299 97.9787 172.911C97.385 175.474 97.7804 180.895 97.7804 180.895V180.895Z" fill="white"/>
<path fill-rule="evenodd" clip-rule="evenodd" d="M97.7804 180.895L95.7536 180.205C95.7536 180.205 96.0012 169.905 92.2925 169.166C89.821 166.307 92.689 47.9309 101.588 168.771C101.588 168.771 98.5225 170.299 97.9787 172.911C97.385 175.474 97.7804 180.895 97.7804 180.895V180.895Z" fill="#AFAEA4"/>
<path fill-rule="evenodd" clip-rule="evenodd" d="M98.8686 170.94C98.8686 170.94 116.619 159.309 112.465 135.111C108.46 117.518 99.017 111.752 97.9787 109.534C96.8418 107.957 95.7536 105.198 95.7536 105.198L96.4956 154.134C96.4956 154.184 94.9628 169.116 98.8691 170.941" fill="white"/>
<path fill-rule="evenodd" clip-rule="evenodd" d="M98.8686 170.94C98.8686 170.94 116.619 159.309 112.465 135.111C108.46 117.518 99.017 111.752 97.9787 109.534C96.8418 107.957 95.7536 105.198 95.7536 105.198L96.4956 154.134C96.4956 154.184 94.9628 169.116 98.8691 170.941" fill="#4A4A55"/>
<path fill-rule="evenodd" clip-rule="evenodd" d="M94.7158 171.58C94.7158 171.58 78.0533 160.245 79.0423 140.286C79.9816 120.327 91.7487 110.52 94.0231 108.746C95.5066 107.169 95.5559 106.577 95.655 105C96.6933 107.218 96.4956 138.167 96.6435 141.814C97.0882 155.859 95.8527 168.92 94.7158 171.58Z" fill="white"/>
<path fill-rule="evenodd" clip-rule="evenodd" d="M94.7158 171.58C94.7158 171.58 78.0533 160.245 79.0423 140.286C79.9816 120.327 91.7487 110.52 94.0231 108.746C95.5066 107.169 95.5559 106.577 95.655 105C96.6933 107.218 96.4956 138.167 96.6435 141.814C97.0882 155.859 95.8527 168.92 94.7158 171.58Z" fill="#6D6D7E"/>
<path d="M475.447 167.576L462.358 136.912C462.165 136.304 461.382 135.982 460.765 135.982H460.359C459.733 135.982 458.978 136.406 458.729 136.977L445.557 167.622C445.53 167.687 445.511 167.76 445.511 167.843C445.511 168.138 445.76 168.377 446.055 168.377H449.711C449.988 168.377 450.255 168.092 450.347 167.898C450.375 167.834 452.898 161.709 452.898 161.709H468.133L470.685 168.009C470.685 168.009 470.878 168.562 471.477 168.562H474.784C475.18 168.562 475.512 168.239 475.512 167.843C475.502 167.742 475.447 167.576 475.447 167.576ZM454.473 157.692L460.516 143.185L466.512 157.692H454.473ZM536.664 156.882C536.664 151.07 532.924 147.238 527.471 147.238C524.358 147.238 522.11 148.546 520.802 150.259V136.682H520.793C520.786 136.553 520.73 136.431 520.635 136.342C520.541 136.252 520.416 136.203 520.287 136.203H516.851C516.574 136.203 516.344 136.424 516.344 136.7V167.88C516.344 168.147 516.565 168.368 516.832 168.368H520.369C520.637 168.368 520.858 168.147 520.858 167.88V157.103C520.904 154.266 522.884 151.291 526.624 151.291C529.912 151.291 532.169 153.769 532.169 157.508V167.88C532.169 168.147 532.39 168.368 532.657 168.368H536.194C536.461 168.368 536.682 168.147 536.682 167.88L536.664 156.882ZM544.825 137.594C543.066 137.64 541.675 138.81 541.675 140.615C541.675 142.421 543.075 143.682 544.825 143.682C546.63 143.682 548.021 142.421 548.021 140.615C548.021 138.81 546.621 137.548 544.825 137.594ZM591.553 157.692C591.553 157.582 591.553 157.462 591.543 157.361V157.324C591.543 157.241 591.543 157.158 591.534 157.075C591.534 157.029 591.525 156.992 591.525 156.946C591.497 156.606 591.47 156.292 591.451 156.136C590.779 150.839 586.993 147.256 581.605 147.256C575.341 147.256 570.966 151.945 570.966 158.024C570.966 164.196 575.7 168.792 582.139 168.792C586.192 168.792 588.614 167.475 590.097 166.314C590.097 166.314 590.429 166.084 590.226 165.706L588.734 163.21C588.605 163.007 588.227 162.989 587.979 163.192C586.837 164.039 585.243 165.006 582.627 165.006C578.749 165.006 575.958 162.62 575.369 159.332H591.184C591.424 159.332 591.525 159.129 591.525 158.89C591.525 158.89 591.543 158.374 591.543 157.868V157.84C591.553 157.785 591.553 157.739 591.553 157.692ZM575.424 156.117C576.096 152.875 578.491 150.895 581.734 150.895C584.709 150.895 587.048 152.967 587.279 156.117H575.424ZM491.373 147.312C491.373 147.312 490.553 147.247 490.12 147.247C486.427 147.247 483.949 149.274 483.092 151.705L482.936 148.122C482.921 147.993 482.86 147.874 482.763 147.787C482.666 147.7 482.541 147.653 482.411 147.652H479.592C479.455 147.652 479.324 147.707 479.227 147.804C479.131 147.9 479.076 148.031 479.076 148.168V167.871C479.076 168.147 479.307 168.377 479.583 168.377H483.065C483.341 168.377 483.571 168.156 483.58 167.88V157.342C483.626 154.413 485.607 151.53 489.485 151.53C490.093 151.53 491.005 151.687 491.005 151.687C491.281 151.724 491.493 151.558 491.511 151.318L491.797 147.781C491.815 147.533 491.612 147.33 491.373 147.312ZM509.675 163.422C509.86 163.32 510.071 163.394 510.164 163.569L511.674 166.323C511.766 166.498 511.702 166.692 511.527 166.802L511.508 166.811C510.09 167.687 508.091 168.773 504.582 168.773C497.913 168.773 493.317 164.085 493.317 158.052C493.317 151.926 498.226 147.238 504.582 147.238C508.128 147.238 510.256 148.325 511.656 149.301C511.72 149.347 511.914 149.513 511.757 149.78L510.173 152.507C510.071 152.682 509.86 152.728 509.685 152.626L509.648 152.599C508.552 151.917 507.069 151.337 505.079 151.337C500.796 151.337 497.913 154.174 497.913 158.052C497.913 161.837 500.796 164.674 504.895 164.674C507.096 164.674 508.524 164.085 509.648 163.431L509.675 163.422ZM546.639 147.643H543.148C542.881 147.643 542.66 147.864 542.66 148.131L542.614 167.889C542.614 168.156 542.835 168.377 543.102 168.377H546.63C546.897 168.377 547.118 168.156 547.118 167.889V148.131C547.118 147.864 546.907 147.643 546.639 147.643ZM567.88 163.827C567.825 163.717 567.466 163.707 567.07 163.928C566.287 164.334 565.402 164.767 563.836 164.767C561.267 164.767 559.691 163.643 559.691 160.889V151.383H567.41C567.677 151.383 567.899 151.162 567.899 150.895V148.131C567.899 147.864 567.677 147.643 567.41 147.643H559.691V141.011C559.691 140.744 559.47 140.523 559.203 140.523H555.804C555.537 140.523 555.316 140.744 555.316 141.011V147.643H551.475C551.208 147.643 550.987 147.864 550.987 148.131V150.895C550.987 151.162 551.208 151.383 551.475 151.383H555.224V161.165C555.224 166.075 558.337 168.783 562.934 168.783C566.195 168.783 568.083 167.659 568.976 167.023C569.133 166.848 569.225 166.673 569.133 166.48L567.88 163.827ZM610.785 163.495C610.969 163.394 611.181 163.468 611.273 163.643L612.784 166.397C612.876 166.572 612.812 166.765 612.637 166.876L612.618 166.885C611.2 167.76 609.201 168.847 605.692 168.847C599.023 168.847 594.426 164.159 594.426 158.125C594.426 152 599.336 147.312 605.692 147.312C609.238 147.312 611.366 148.399 612.766 149.375C612.83 149.421 613.024 149.587 612.867 149.854L611.283 152.58C611.181 152.755 610.969 152.801 610.794 152.7L610.758 152.672C609.662 151.991 608.179 151.411 606.189 151.411C601.906 151.411 599.023 154.248 599.023 158.125C599.023 161.911 601.906 164.748 606.005 164.748C608.206 164.748 609.634 164.159 610.758 163.505L610.785 163.495ZM633.168 163.928C633.113 163.818 632.754 163.809 632.358 164.03C631.575 164.435 630.69 164.868 629.124 164.868C626.555 164.868 624.98 163.744 624.98 160.99V151.484H632.698C632.966 151.484 633.187 151.263 633.187 150.996V148.233C633.187 147.966 632.966 147.745 632.698 147.745H624.98V141.113C624.98 140.845 624.758 140.624 624.491 140.624H621.092C620.825 140.624 620.604 140.845 620.604 141.113V147.745H616.763C616.496 147.745 616.275 147.966 616.275 148.233V150.996C616.275 151.263 616.496 151.484 616.763 151.484H620.512V161.266C620.512 166.176 623.626 168.884 628.222 168.884C631.483 168.884 633.371 167.76 634.264 167.125C634.421 166.95 634.513 166.775 634.421 166.581L633.168 163.928ZM416.515 130.326C404.513 130.326 394.749 140.09 394.749 152.092C394.749 164.094 404.513 173.858 416.515 173.858C428.517 173.858 438.28 164.094 438.28 152.092C438.28 140.09 428.507 130.326 416.515 130.326ZM431.455 162.224C428.065 167.208 422.511 170.164 416.505 170.164C410.527 170.164 404.973 167.217 401.584 162.27L416.505 147.735L431.455 162.224ZM434.587 152.092C434.587 154.413 434.145 156.688 433.26 158.853L418.366 144.41C417.344 143.388 415.676 143.378 414.663 144.392L399.778 158.899C398.885 156.716 398.433 154.432 398.433 152.092C398.433 142.126 406.548 134.011 416.515 134.011C426.481 134.011 434.587 142.117 434.587 152.092Z" fill="#4A4A55"/>
<defs>
<clipPath id="clip0">
<rect width="216.5" height="51.9" fill="white" transform="translate(37 38)"/>
</clipPath>
<clipPath id="clip1">
<rect width="106" height="63.4605" fill="white" transform="translate(568 44)"/>
</clipPath>
</defs>
</svg>
